Input #0, mov,mp4,m4a,3gp,3g2,mj2, from '/home/hbattu/projects/huberman-gpt/huberman-audio/mp3/tmpwka_mm9q.mp4':
  Metadata:
    major_brand     : dash
    minor_version   : 0
    compatible_brands: iso6mp41
    creation_time   : 2021-01-16T13:37:42.000000Z
  Duration: 01:22:04.81, start: 0.000000, bitrate: 129 kb/s
    Stream #0:0(und): Audio: aac (LC) (mp4a / 0x6134706D), 44100 Hz, stereo, fltp, 0 kb/s (default)
    Metadata:
      creation_time   : 2021-01-16T13:37:42.000000Z
      handler_name    : ISO Media file produced by Google Inc.
Stream mapping:
  Stream #0:0 -> #0:0 (aac (native) -> mp3 (libmp3lame))
Press [q] to stop, [?] for help
[graph_0_in_0_0 @ 0x563186578340] tb:1/44100 samplefmt:fltp samplerate:44100 chlayout:0x3
Output #0, mp3, to '../huberman-audio/mp3/nm1TxQj9IsQ.mp3':
  Metadata:
    major_brand     : dash
    minor_version   : 0
    compatible_brands: iso6mp41
    TSSE            : Lavf58.29.100
    Stream #0:0(und): Audio: mp3 (libmp3lame), 44100 Hz, stereo, fltp, delay 1105 (default)
    Metadata:
      creation_time   : 2021-01-16T13:37:42.000000Z
      handler_name    : ISO Media file produced by Google Inc.
      encoder         : Lavc58.54.100 libmp3lame
No more output streams to write to, finishing.
size=   76951kB time=01:22:04.81 bitrate= 128.0kbits/s speed=97.6x    
[AVIOContext @ 0x563186542900] Statistics: 0 seeks, 101 writeouts
video:0kB audio:76951kB subtitle:0kB other streams:0kB global headers:0kB muxing overhead: 0.000439%
Input file #0 (/home/hbattu/projects/huberman-gpt/huberman-audio/mp3/tmpwka_mm9q.mp4):
  Input stream #0:0 (audio): 212094 packets read (78797008 bytes); 212094 frames decoded (217184256 samples); 
  Total: 212094 packets (78797008 bytes) demuxed
Output file #0 (../huberman-audio/mp3/nm1TxQj9IsQ.mp3):
  Output stream #0:0 (audio): 188528 frames encoded (217184256 samples); 188529 packets muxed (78797426 bytes); 
  Total: 188529 packets (78797426 bytes) muxed
[AVIOContext @ 0x563186569340] Statistics: 2 seeks, 302 writeouts
[AVIOContext @ 0x56318654b880] Statistics: 79703352 bytes read, 0 seeks
